<?xml version="1.0" standalone="no"?>
<!DOCTYPE svg PUBLIC "-//W3C//DTD SVG 20010904//EN"
 "http://www.w3.org/TR/2001/REC-SVG-20010904/DTD/svg10.dtd">
<svg version="1.0" xmlns="http://www.w3.org/2000/svg"
 width="512.000000pt" height="512.000000pt" viewBox="0 0 512.000000 512.000000"
 preserveAspectRatio="xMidYMid meet">

<g transform="translate(0.000000,512.000000) scale(0.100000,-0.100000)"
 fill="#000000" stroke="none">
<path d="M1835 3880 l-719 -719 34 -36 34 -35 -34 -35 -34 -36 722 -722 722
-722 722 722 722 722 -34 36 -34 35 34 35 34 36 -719 719 c-396 396 -722 720
-725 720 -3 0 -329 -324 -725 -720z m1430 -20 l699 -699 -24 -26 -24 -26 -678
678 -678 678 -678 -678 -678 -678 -24 26 -24 26 699 699 c385 385 702 700 705
700 3 0 320 -315 705 -700z m-35 -105 l665 -665 -668 -668 -667 -667 -667 667
-668 668 665 665 c366 366 667 665 670 665 3 0 304 -299 670 -665z m-1343
-1367 l673 -673 673 673 c369 369 677 672 683 672 6 0 19 -9 29 -20 19 -21 13
-27 -683 -723 l-702 -702 -701 701 c-699 699 -701 701 -683 723 10 11 23 21
29 21 5 0 313 -303 682 -672z"/>
<path d="M2116 3262 c-43 -103 -100 -233 -127 -289 -43 -90 -52 -103 -83 -114
-20 -7 -33 -15 -30 -18 7 -8 214 -9 219 -2 2 4 -16 12 -40 19 -27 7 -46 19
-50 31 -6 18 27 116 59 180 l17 32 107 -3 107 -3 47 -95 c62 -126 61 -150 -4
-150 -12 0 -18 -3 -14 -7 8 -9 206 -13 219 -6 5 3 -7 12 -25 21 -36 19 -61 63
-218 395 -46 98 -89 182 -95 187 -8 6 -36 -49 -89 -178z m117 -25 c26 -57 47
-106 47 -110 0 -4 -43 -7 -95 -7 -52 0 -95 3 -95 7 0 13 85 213 90 213 3 -1
26 -47 53 -103z"/>
<path d="M2355 3431 c-3 -2 10 -11 27 -20 28 -14 47 -48 161 -296 70 -154 130
-282 133 -284 11 -11 34 31 74 134 24 61 46 113 50 118 3 4 34 -51 68 -123 33
-71 65 -130 70 -130 5 0 14 12 20 28 181 464 229 562 277 562 8 0 15 3 15 8 0
4 -43 7 -95 7 -52 0 -95 -3 -95 -7 0 -5 10 -8 23 -8 27 0 47 -17 47 -42 0 -19
-156 -418 -169 -431 -8 -8 -114 212 -114 236 0 17 62 177 78 204 8 12 28 24
45 28 53 12 32 21 -45 20 -74 0 -95 -7 -54 -18 27 -7 23 -38 -19 -129 l-29
-63 -42 90 c-39 83 -41 90 -25 102 15 11 9 13 -42 13 -32 0 -69 3 -81 6 -31 9
-29 -10 3 -25 19 -8 40 -43 85 -137 32 -69 59 -132 59 -139 0 -28 -73 -196
-81 -188 -10 10 -176 364 -194 414 -15 40 -6 59 27 59 10 0 18 4 18 9 0 8
-187 10 -195 2z"/>
</g>
</svg>
